REM DIRINDEX 1\8,1\2\11,1\3\12,1\3\14,1\5\15,1\5\16,1\6\17,1\6\18,1\4\19,1\4\20,1\4\21,1\4\22,1\7\23,1\7\24,1\7\25,1\2\9\26,1\2\9\27,1\2\10\28,1\2\10\29,1\2\10\30,1\2\10\31,1\2\10\32,1\3\13\33,1\3\13\34,1\3\13\35
REM DIRNAME cjc123,folder01,folder02,folder03,folder04,folder05,folder06,folder07,folder08,folder09,folder10,folder11,folder12,folder13,folder14,folder15,folder16,folder17,folder18,folder19,folder20,folder21,folder22,folder23,folder24,folder25,folder26,folder27,folder28,folder29,folder30,folder31,folder32,folder33,folder34
TITLE ""
FILE "152 152_例文UNIT5_SET6.mp3" MP3
  TRACK 01 AUDIO
    TITLE "22:cjc123_3969"
    INDEX 01 00:00:00
  TRACK 02 AUDIO
    TITLE "0:"
    INDEX 01 00:02:67
  TRACK 03 AUDIO
    TITLE "19:cjc123_3970"
    INDEX 01 00:03:39
  TRACK 04 AUDIO
    TITLE "0:"
    INDEX 01 00:07:15
  TRACK 05 AUDIO
    TITLE "20:cjc123_3971"
    INDEX 01 00:07:47
  TRACK 06 AUDIO
    TITLE "0:"
    INDEX 01 00:11:66
  TRACK 07 AUDIO
    TITLE "21:cjc123_3972"
    INDEX 01 00:12:20
  TRACK 08 AUDIO
    TITLE "0:"
    INDEX 01 00:15:70
  TRACK 09 AUDIO
    TITLE "19:cjc123_3973"
    INDEX 01 00:16:40
  TRACK 10 AUDIO
    TITLE "0:"
    INDEX 01 00:20:45
  TRACK 11 AUDIO
    TITLE "20:cjc123_3974"
    INDEX 01 00:21:11
  TRACK 12 AUDIO
    TITLE "0:"
    INDEX 01 00:24:57
  TRACK 13 AUDIO
    TITLE "21:cjc123_3975"
    INDEX 01 00:25:09
  TRACK 14 AUDIO
    TITLE "0:"
    INDEX 01 00:29:13
  TRACK 15 AUDIO
    TITLE "19:cjc123_3976"
    INDEX 01 00:29:72
  TRACK 16 AUDIO
    TITLE "0:"
    INDEX 01 00:34:12
  TRACK 17 AUDIO
    TITLE "20:cjc123_3977"
    INDEX 01 00:34:51
  TRACK 18 AUDIO
    TITLE "0:"
    INDEX 01 00:39:05
  TRACK 19 AUDIO
    TITLE "21:cjc123_3978"
    INDEX 01 00:39:33
  TRACK 20 AUDIO
    TITLE "0:"
    INDEX 01 00:43:50
  TRACK 21 AUDIO
    TITLE "19:cjc123_3979"
    INDEX 01 00:44:20
  TRACK 22 AUDIO
    TITLE "0:"
    INDEX 01 00:49:00
  TRACK 23 AUDIO
    TITLE "20:cjc123_3980"
    INDEX 01 00:49:31
  TRACK 24 AUDIO
    TITLE "0:"
    INDEX 01 00:53:51
  TRACK 25 AUDIO
    TITLE "21:cjc123_3981"
    INDEX 01 00:54:11
  TRACK 26 AUDIO
    TITLE "0:"
    INDEX 01 00:58:50
  TRACK 27 AUDIO
    TITLE "19:cjc123_3982"
    INDEX 01 00:59:45
  TRACK 28 AUDIO
    TITLE "0:"
    INDEX 01 01:06:12
  TRACK 29 AUDIO
    TITLE "20:cjc123_3983"
    INDEX 01 01:06:43
  TRACK 30 AUDIO
    TITLE "0:"
    INDEX 01 01:12:60
  TRACK 31 AUDIO
    TITLE "21:cjc123_3984"
    INDEX 01 01:13:12
  TRACK 32 AUDIO
    TITLE "0:"
    INDEX 01 01:19:52
  TRACK 33 AUDIO
    TITLE "19:cjc123_3985"
    INDEX 01 01:20:48
  TRACK 34 AUDIO
    TITLE "0:"
    INDEX 01 01:26:60
  TRACK 35 AUDIO
    TITLE "20:cjc123_3986"
    INDEX 01 01:27:16
  TRACK 36 AUDIO
    TITLE "0:"
    INDEX 01 01:32:25
  TRACK 37 AUDIO
    TITLE "21:cjc123_3987"
    INDEX 01 01:32:55
  TRACK 38 AUDIO
    TITLE "0:"
    INDEX 01 01:38:67
  TRACK 39 AUDIO
    TITLE "19:cjc123_3988"
    INDEX 01 01:39:43
  TRACK 40 AUDIO
    TITLE "0:"
    INDEX 01 01:45:20
  TRACK 41 AUDIO
    TITLE "20:cjc123_3989"
    INDEX 01 01:45:49
  TRACK 42 AUDIO
    TITLE "0:"
    INDEX 01 01:50:68
  TRACK 43 AUDIO
    TITLE "21:cjc123_3990"
    INDEX 01 01:51:23
  TRACK 44 AUDIO
    TITLE "0:"
    INDEX 01 01:57:00
  TRACK 45 AUDIO
    TITLE "19:cjc123_3991"
    INDEX 01 01:57:49
  TRACK 46 AUDIO
    TITLE "0:"
    INDEX 01 02:02:34
  TRACK 47 AUDIO
    TITLE "20:cjc123_3992"
    INDEX 01 02:02:67
  TRACK 48 AUDIO
    TITLE "0:"
    INDEX 01 02:08:72
  TRACK 49 AUDIO
    TITLE "21:cjc123_3993"
    INDEX 01 02:09:26
  TRACK 50 AUDIO
    TITLE "0:"
    INDEX 01 02:14:12
  TRACK 51 AUDIO
    TITLE "19:cjc123_3994"
    INDEX 01 02:14:69
  TRACK 52 AUDIO
    TITLE "0:"
    INDEX 01 02:19:68
  TRACK 53 AUDIO
    TITLE "20:cjc123_3995"
    INDEX 01 02:20:34
  TRACK 54 AUDIO
    TITLE "0:"
    INDEX 01 02:24:57
  TRACK 55 AUDIO
    TITLE "21:cjc123_3996"
    INDEX 01 02:25:12
  TRACK 56 AUDIO
    TITLE "0:"
    INDEX 01 02:30:11
  TRACK 57 AUDIO
    TITLE "19:cjc123_3997"
    INDEX 01 02:31:12
  TRACK 58 AUDIO
    TITLE "0:"
    INDEX 01 02:36:57
  TRACK 59 AUDIO
    TITLE "20:cjc123_3998"
    INDEX 01 02:37:05
  TRACK 60 AUDIO
    TITLE "0:"
    INDEX 01 02:42:14
  TRACK 61 AUDIO
    TITLE "21:cjc123_3999"
    INDEX 01 02:42:43
  TRACK 62 AUDIO
    TITLE "0:"
    INDEX 01 02:48:11
  TRACK 63 AUDIO
    TITLE "19:cjc123_4000"
    INDEX 01 02:48:62
  TRACK 64 AUDIO
    TITLE "0:"
    INDEX 01 02:54:21
  TRACK 65 AUDIO
    TITLE "20:cjc123_4001"
    INDEX 01 02:54:53
  TRACK 66 AUDIO
    TITLE "0:"
    INDEX 01 02:59:69
  TRACK 67 AUDIO
    TITLE "21:cjc123_4002"
    INDEX 01 03:00:22
  TRACK 68 AUDIO
    TITLE "0:"
    INDEX 01 03:05:56
  TRACK 69 AUDIO
    TITLE "19:cjc123_4003"
    INDEX 01 03:06:26
  TRACK 70 AUDIO
    TITLE "0:"
    INDEX 01 03:09:58
  TRACK 71 AUDIO
    TITLE "20:cjc123_4004"
    INDEX 01 03:10:10
  TRACK 72 AUDIO
    TITLE "0:"
    INDEX 01 03:13:42
  TRACK 73 AUDIO
    TITLE "21:cjc123_4005"
    INDEX 01 03:13:71
  TRACK 74 AUDIO
    TITLE "0:"
    INDEX 01 03:17:28
  TRACK 75 AUDIO
    TITLE "19:cjc123_4006"
    INDEX 01 03:18:20
  TRACK 76 AUDIO
    TITLE "0:"
    INDEX 01 03:22:43
  TRACK 77 AUDIO
    TITLE "20:cjc123_4007"
    INDEX 01 03:22:57
  TRACK 78 AUDIO
    TITLE "0:"
    INDEX 01 03:26:53
  TRACK 79 AUDIO
    TITLE "21:cjc123_4008"
    INDEX 01 03:27:07
  TRACK 80 AUDIO
    TITLE "0:"
    INDEX 01 03:31:30
  TRACK 81 AUDIO
    TITLE "19:cjc123_4009"
    INDEX 01 03:31:69
  TRACK 82 AUDIO
    TITLE "0:"
    INDEX 01 03:36:47
  TRACK 83 AUDIO
    TITLE "20:cjc123_4010"
    INDEX 01 03:37:05
  TRACK 84 AUDIO
    TITLE "0:"
    INDEX 01 03:42:34
  TRACK 85 AUDIO
    TITLE "21:cjc123_4011"
    INDEX 01 03:42:65
  TRACK 86 AUDIO
    TITLE "0:"
    INDEX 01 03:47:43
  TRACK 87 AUDIO
    TITLE "19:cjc123_4012"
    INDEX 01 03:48:17
  TRACK 88 AUDIO
    TITLE "0:"
    INDEX 01 03:52:13
  TRACK 89 AUDIO
    TITLE "20:cjc123_4013"
    INDEX 01 03:52:46
  TRACK 90 AUDIO
    TITLE "0:"
    INDEX 01 03:55:46
  TRACK 91 AUDIO
    TITLE "21:cjc123_4014"
    INDEX 01 03:55:74
  TRACK 92 AUDIO
    TITLE "0:"
    INDEX 01 03:59:74
